<svg width="28" height="28" viewBox="0 0 28 28" fill="none" xmlns="http://www.w3.org/2000/svg">
<g clip-path="url(#clip0_1_1397)">
<path d="M9.25295 5.86156L9.22176 5.89275C8.504 6.64366 8.51428 7.83421 9.2526 8.57253L14.4677 13.7876L14.6798 13.9997L14.4677 14.2119L9.2526 19.4269C8.50389 20.1757 8.50386 21.3894 9.25251 22.1382C9.62718 22.5125 10.1174 22.6997 10.6084 22.6997C11.0996 22.6997 11.59 22.5125 11.9643 22.1383L18.747 15.3556C19.4957 14.6068 19.4957 13.393 18.747 12.6443L11.9643 5.86156C11.2155 5.11281 10.0017 5.11281 9.25295 5.86156Z" fill="#3596FF" stroke="white" stroke-width="0.6"/>
</g>
<defs>
<clipPath id="clip0_1_1397">
<rect width="18" height="18" fill="white" transform="matrix(-1 0 0 1 23 5)"/>
</clipPath>
</defs>
</svg>
