<svg width="20" height="20" viewBox="0 0 20 20" fill="none" xmlns="http://www.w3.org/2000/svg">
<g clip-path="url(#clip0_1_1912)">
<path d="M15.1601 1.13754L15.1272 1.1046C14.3766 0.354023 13.1598 0.354023 12.4092 1.1046L4.87291 8.64093C4.12233 9.3915 4.12233 10.6083 4.87291 11.3589L12.4092 18.8952C12.7844 19.2704 13.2757 19.458 13.7684 19.458C14.2609 19.458 14.7519 19.2705 15.1276 18.8952C15.1276 18.8952 15.1277 18.8951 15.1277 18.8951M15.1601 1.13754L15.5106 15.7942C16.4727 16.7563 16.4727 18.3161 15.5106 19.2782L15.1277 18.8951M15.1601 1.13754C15.878 1.89038 15.8671 3.0826 15.1276 3.82216L9.33305 9.61669L8.95003 9.99971L9.33305 10.3827L15.1276 16.1773C15.8781 16.9278 15.8782 18.1445 15.1277 18.8951M15.1601 1.13754L15.1277 18.8951" fill="#3596FF" stroke="#F1F3F6" stroke-width="1.08333"/>
</g>
<defs>
<clipPath id="clip0_1_1912">
<rect width="20" height="20" fill="white"/>
</clipPath>
</defs>
</svg>
