<svg width="20" height="20" viewBox="0 0 20 20" fill="none" xmlns="http://www.w3.org/2000/svg">
<g clip-path="url(#clip0_1_4114)">
<path d="M18.4198 13.4875H14.6991C14.5148 13.4851 14.3388 13.4108 14.2085 13.2805C14.0781 13.1502 14.0039 12.9741 14.0015 12.7898V2.55797C14.0015 1.87955 14.271 1.22892 14.7507 0.749211C15.2304 0.269499 15.881 0 16.5594 0C17.2378 0 17.8885 0.269499 18.3682 0.749211C18.8479 1.22892 19.1174 1.87955 19.1174 2.55797V12.7898C19.115 12.9741 19.0407 13.1502 18.9104 13.2805C18.7801 13.4108 18.604 13.4851 18.4198 13.4875ZM15.3967 12.0922H17.7221V2.55797C17.7221 2.2496 17.5996 1.95386 17.3816 1.73581C17.1635 1.51775 16.8678 1.39526 16.5594 1.39526C16.2511 1.39526 15.9553 1.51775 15.7373 1.73581C15.5192 1.95386 15.3967 2.2496 15.3967 2.55797V12.0922Z" fill="white"/>
<path d="M16.5593 0H4.46714C3.29533 0 2.17151 0.465499 1.34292 1.29409C0.514327 2.12269 0.0488281 3.2465 0.0488281 4.41831V19.301C0.0512372 19.4853 0.125511 19.6614 0.255823 19.7917C0.386135 19.922 0.562183 19.9962 0.746456 19.9987C1.33829 20.0042 1.91014 19.7848 2.34635 19.3847C2.43869 19.2844 2.55085 19.2043 2.67573 19.1495C2.80062 19.0947 2.93551 19.0664 3.07188 19.0664C3.20826 19.0664 3.34315 19.0947 3.46803 19.1495C3.59291 19.2043 3.70507 19.2844 3.79741 19.3847C4.23495 19.7795 4.80333 19.9981 5.39266 19.9981C5.98198 19.9981 6.55037 19.7795 6.9879 19.3847C7.08024 19.2844 7.1924 19.2043 7.31728 19.1495C7.44217 19.0947 7.57706 19.0664 7.71343 19.0664C7.8498 19.0664 7.9847 19.0947 8.10958 19.1495C8.23446 19.2043 8.34662 19.2844 8.43896 19.3847C8.87801 19.7802 9.44797 19.999 10.0389 19.999C10.6297 19.999 11.1997 19.7802 11.6387 19.3847C11.7326 19.2854 11.8458 19.2062 11.9714 19.1521C12.0969 19.098 12.2322 19.0701 12.3689 19.0701C12.5056 19.0701 12.6409 19.098 12.7665 19.1521C12.892 19.2062 13.0052 19.2854 13.0991 19.3847C13.5353 19.7848 14.1072 20.0042 14.699 19.9987C14.8833 19.9962 15.0593 19.922 15.1896 19.7917C15.32 19.6614 15.3942 19.4853 15.3966 19.301V2.55797C15.3966 2.2496 15.5191 1.95386 15.7372 1.73581C15.9552 1.51775 16.251 1.39526 16.5593 1.39526C16.7444 1.39526 16.9218 1.32176 17.0526 1.19092C17.1835 1.06009 17.257 0.88265 17.257 0.697628C17.257 0.512605 17.1835 0.335161 17.0526 0.20433C16.9218 0.0734999 16.7444 0 16.5593 0ZM4.12297 14.4176C3.985 14.4176 3.85012 14.3767 3.73539 14.3001C3.62067 14.2234 3.53125 14.1145 3.47845 13.987C3.42565 13.8595 3.41183 13.7192 3.43875 13.5839C3.46567 13.4486 3.53211 13.3243 3.62968 13.2267C3.72724 13.1291 3.85155 13.0627 3.98687 13.0358C4.1222 13.0089 4.26247 13.0227 4.38994 13.0755C4.51742 13.1283 4.62637 13.2177 4.70303 13.3324C4.77969 13.4472 4.8206 13.582 4.8206 13.72C4.8206 13.905 4.7471 14.0825 4.61627 14.2133C4.48544 14.3441 4.308 14.4176 4.12297 14.4176ZM4.12297 10.697C3.985 10.697 3.85012 10.656 3.73539 10.5794C3.62067 10.5027 3.53125 10.3938 3.47845 10.2663C3.42565 10.1388 3.41183 9.99856 3.43875 9.86323C3.46567 9.7279 3.53211 9.6036 3.62968 9.50603C3.72724 9.40847 3.85155 9.34202 3.98687 9.31511C4.1222 9.28819 4.26247 9.302 4.38994 9.3548C4.51742 9.40761 4.62637 9.49702 4.70303 9.61175C4.77969 9.72647 4.8206 9.86135 4.8206 9.99933C4.8206 10.1844 4.7471 10.3618 4.61627 10.4926C4.48544 10.6235 4.308 10.697 4.12297 10.697ZM4.12297 6.97628C3.985 6.97628 3.85012 6.93536 3.73539 6.8587C3.62067 6.78205 3.53125 6.67309 3.47845 6.54562C3.42565 6.41814 3.41183 6.27787 3.43875 6.14255C3.46567 6.00722 3.53211 5.88292 3.62968 5.78535C3.72724 5.68779 3.85155 5.62134 3.98687 5.59443C4.1222 5.56751 4.26247 5.58132 4.38994 5.63412C4.51742 5.68693 4.62637 5.77634 4.70303 5.89107C4.77969 6.00579 4.8206 6.14067 4.8206 6.27865C4.8206 6.46367 4.7471 6.64111 4.61627 6.77194C4.48544 6.90278 4.308 6.97628 4.12297 6.97628ZM11.0993 14.4176H6.4484C6.26338 14.4176 6.08593 14.3441 5.9551 14.2133C5.82427 14.0825 5.75077 13.905 5.75077 13.72C5.75077 13.535 5.82427 13.3575 5.9551 13.2267C6.08593 13.0959 6.26338 13.0224 6.4484 13.0224H11.0993C11.2843 13.0224 11.4617 13.0959 11.5925 13.2267C11.7234 13.3575 11.7969 13.535 11.7969 13.72C11.7969 13.905 11.7234 14.0825 11.5925 14.2133C11.4617 14.3441 11.2843 14.4176 11.0993 14.4176ZM11.0993 10.697H6.4484C6.26338 10.697 6.08593 10.6235 5.9551 10.4926C5.82427 10.3618 5.75077 10.1844 5.75077 9.99933C5.75077 9.81431 5.82427 9.63686 5.9551 9.50603C6.08593 9.3752 6.26338 9.3017 6.4484 9.3017H11.0993C11.2843 9.3017 11.4617 9.3752 11.5925 9.50603C11.7234 9.63686 11.7969 9.81431 11.7969 9.99933C11.7969 10.1844 11.7234 10.3618 11.5925 10.4926C11.4617 10.6235 11.2843 10.697 11.0993 10.697ZM11.0993 6.97628H6.4484C6.26338 6.97628 6.08593 6.90278 5.9551 6.77194C5.82427 6.64111 5.75077 6.46367 5.75077 6.27865C5.75077 6.09363 5.82427 5.91618 5.9551 5.78535C6.08593 5.65452 6.26338 5.58102 6.4484 5.58102H11.0993C11.2843 5.58102 11.4617 5.65452 11.5925 5.78535C11.7234 5.91618 11.7969 6.09363 11.7969 6.27865C11.7969 6.46367 11.7234 6.64111 11.5925 6.77194C11.4617 6.90278 11.2843 6.97628 11.0993 6.97628Z" fill="white"/>
</g>
<defs>
<clipPath id="clip0_1_4114">
<rect width="20" height="20" fill="white"/>
</clipPath>
</defs>
</svg>
