<svg width="24" height="24" viewBox="0 0 24 24" fill="none" xmlns="http://www.w3.org/2000/svg">
<g clip-path="url(#clip0_1_3454)">
<path d="M14.2323 3.90716C14.0112 3.90427 13.7999 3.81513 13.6435 3.65875C13.4872 3.50237 13.398 3.2911 13.3951 3.06996V0.83744C13.3951 0.615402 13.4833 0.402458 13.6404 0.245453C13.7974 0.0884485 14.0103 0.000244141 14.2323 0.000244141C14.4544 0.000244141 14.6673 0.0884485 14.8243 0.245453C14.9813 0.402458 15.0695 0.615402 15.0695 0.83744V3.06996C15.0666 3.2911 14.9775 3.50237 14.8211 3.65875C14.6647 3.81513 14.4535 3.90427 14.2323 3.90716Z" fill="white"/>
<path d="M18.6977 3.90716C18.4766 3.90427 18.2653 3.81513 18.1089 3.65875C17.9526 3.50237 17.8634 3.2911 17.8605 3.06996V0.83744C17.8605 0.615402 17.9487 0.402458 18.1057 0.245453C18.2627 0.0884485 18.4757 0.000244141 18.6977 0.000244141C18.9198 0.000244141 19.1327 0.0884485 19.2897 0.245453C19.4467 0.402458 19.5349 0.615402 19.5349 0.83744V3.06996C19.532 3.2911 19.4429 3.50237 19.2865 3.65875C19.1301 3.81513 18.9189 3.90427 18.6977 3.90716Z" fill="white"/>
<path d="M9.76688 3.90716C9.54574 3.90427 9.33448 3.81513 9.17809 3.65875C9.02171 3.50237 8.93258 3.2911 8.92969 3.06996V0.83744C8.92969 0.615402 9.01789 0.402458 9.1749 0.245453C9.3319 0.0884485 9.54485 0.000244141 9.76688 0.000244141C9.98892 0.000244141 10.2019 0.0884485 10.3589 0.245453C10.5159 0.402458 10.6041 0.615402 10.6041 0.83744V3.06996C10.6012 3.2911 10.5121 3.50237 10.3557 3.65875C10.1993 3.81513 9.98802 3.90427 9.76688 3.90716Z" fill="white"/>
<path d="M5.30265 3.90716C5.08151 3.90427 4.87024 3.81513 4.71386 3.65875C4.55748 3.50237 4.46835 3.2911 4.46545 3.06996V0.83744C4.46545 0.615402 4.55366 0.402458 4.71066 0.245453C4.86767 0.0884485 5.08061 0.000244141 5.30265 0.000244141C5.52469 0.000244141 5.73763 0.0884485 5.89464 0.245453C6.05164 0.402458 6.13985 0.615402 6.13985 0.83744V3.06996C6.13695 3.2911 6.04782 3.50237 5.89144 3.65875C5.73506 3.81513 5.52379 3.90427 5.30265 3.90716Z" fill="white"/>
<path d="M23.9996 7.81397V5.30238C23.9996 4.48824 23.6762 3.70745 23.1005 3.13177C22.5248 2.55608 21.744 2.23267 20.9299 2.23267H3.06972C2.25558 2.23267 1.47478 2.55608 0.8991 3.13177C0.323416 3.70745 0 4.48824 0 5.30238V7.81397H23.9996Z" fill="white"/>
<path d="M0 9.48877V20.9304C0 21.7446 0.323416 22.5254 0.8991 23.1011C1.47478 23.6767 2.25558 24.0002 3.06972 24.0002H20.9299C21.744 24.0002 22.5248 23.6767 23.1005 23.1011C23.6762 22.5254 23.9996 21.7446 23.9996 20.9304V9.48877H0ZM5.30224 19.8142C5.08146 19.8142 4.86565 19.7487 4.68208 19.6261C4.49851 19.5034 4.35544 19.3291 4.27095 19.1251C4.18646 18.9211 4.16436 18.6967 4.20743 18.4802C4.2505 18.2636 4.35681 18.0647 4.51292 17.9086C4.66904 17.7525 4.86793 17.6462 5.08447 17.6031C5.301 17.56 5.52544 17.5821 5.72941 17.6666C5.93338 17.7511 6.10772 17.8942 6.23038 18.0778C6.35303 18.2613 6.4185 18.4771 6.4185 18.6979C6.4185 18.994 6.30089 19.2779 6.09156 19.4872C5.88222 19.6966 5.59829 19.8142 5.30224 19.8142ZM5.30224 15.3491C5.08146 15.3491 4.86565 15.2837 4.68208 15.161C4.49851 15.0384 4.35544 14.864 4.27095 14.6601C4.18646 14.4561 4.16436 14.2316 4.20743 14.0151C4.2505 13.7986 4.35681 13.5997 4.51292 13.4436C4.66904 13.2875 4.86793 13.1811 5.08447 13.1381C5.301 13.095 5.52544 13.1171 5.72941 13.2016C5.93338 13.2861 6.10772 13.4291 6.23038 13.6127C6.35303 13.7963 6.4185 14.0121 6.4185 14.2329C6.4185 14.5289 6.30089 14.8129 6.09156 15.0222C5.88222 15.2315 5.59829 15.3491 5.30224 15.3491ZM9.76728 19.8142C9.54651 19.8142 9.33069 19.7487 9.14712 19.6261C8.96355 19.5034 8.82048 19.3291 8.73599 19.1251C8.65151 18.9211 8.6294 18.6967 8.67247 18.4802C8.71554 18.2636 8.82186 18.0647 8.97797 17.9086C9.13408 17.7525 9.33298 17.6462 9.54951 17.6031C9.76605 17.56 9.99049 17.5821 10.1945 17.6666C10.3984 17.7511 10.5728 17.8942 10.6954 18.0778C10.8181 18.2613 10.8835 18.4771 10.8835 18.6979C10.8835 18.994 10.7659 19.2779 10.5566 19.4872C10.3473 19.6966 10.0633 19.8142 9.76728 19.8142ZM9.76728 15.3491C9.54651 15.3491 9.33069 15.2837 9.14712 15.161C8.96355 15.0384 8.82048 14.864 8.73599 14.6601C8.65151 14.4561 8.6294 14.2316 8.67247 14.0151C8.71554 13.7986 8.82186 13.5997 8.97797 13.4436C9.13408 13.2875 9.33298 13.1811 9.54951 13.1381C9.76605 13.095 9.99049 13.1171 10.1945 13.2016C10.3984 13.2861 10.5728 13.4291 10.6954 13.6127C10.8181 13.7963 10.8835 14.0121 10.8835 14.2329C10.8835 14.5289 10.7659 14.8129 10.5566 15.0222C10.3473 15.2315 10.0633 15.3491 9.76728 15.3491ZM14.2323 19.8142C14.0116 19.8142 13.7957 19.7487 13.6122 19.6261C13.4286 19.5034 13.2855 19.3291 13.201 19.1251C13.1165 18.9211 13.0944 18.6967 13.1375 18.4802C13.1806 18.2636 13.2869 18.0647 13.443 17.9086C13.5991 17.7525 13.798 17.6462 14.0146 17.6031C14.2311 17.56 14.4555 17.5821 14.6595 17.6666C14.8635 17.7511 15.0378 17.8942 15.1605 18.0778C15.2831 18.2613 15.3486 18.4771 15.3486 18.6979C15.3486 18.994 15.231 19.2779 15.0216 19.4872C14.8123 19.6966 14.5284 19.8142 14.2323 19.8142ZM14.2323 15.3491C14.0116 15.3491 13.7957 15.2837 13.6122 15.161C13.4286 15.0384 13.2855 14.864 13.201 14.6601C13.1165 14.4561 13.0944 14.2316 13.1375 14.0151C13.1806 13.7986 13.2869 13.5997 13.443 13.4436C13.5991 13.2875 13.798 13.1811 14.0146 13.1381C14.2311 13.095 14.4555 13.1171 14.6595 13.2016C14.8635 13.2861 15.0378 13.4291 15.1605 13.6127C15.2831 13.7963 15.3486 14.0121 15.3486 14.2329C15.3486 14.5289 15.231 14.8129 15.0216 15.0222C14.8123 15.2315 14.5284 15.3491 14.2323 15.3491ZM18.6974 19.8142C18.4766 19.8142 18.2608 19.7487 18.0772 19.6261C17.8936 19.5034 17.7506 19.3291 17.6661 19.1251C17.5816 18.9211 17.5595 18.6967 17.6026 18.4802C17.6456 18.2636 17.7519 18.0647 17.9081 17.9086C18.0642 17.7525 18.2631 17.6462 18.4796 17.6031C18.6961 17.56 18.9206 17.5821 19.1245 17.6666C19.3285 17.7511 19.5029 17.8942 19.6255 18.0778C19.7482 18.2613 19.8136 18.4771 19.8136 18.6979C19.8136 18.994 19.696 19.2779 19.4867 19.4872C19.2773 19.6966 18.9934 19.8142 18.6974 19.8142ZM18.6974 15.3491C18.4766 15.3491 18.2608 15.2837 18.0772 15.161C17.8936 15.0384 17.7506 14.864 17.6661 14.6601C17.5816 14.4561 17.5595 14.2316 17.6026 14.0151C17.6456 13.7986 17.7519 13.5997 17.9081 13.4436C18.0642 13.2875 18.2631 13.1811 18.4796 13.1381C18.6961 13.095 18.9206 13.1171 19.1245 13.2016C19.3285 13.2861 19.5029 13.4291 19.6255 13.6127C19.7482 13.7963 19.8136 14.0121 19.8136 14.2329C19.8136 14.5289 19.696 14.8129 19.4867 15.0222C19.2773 15.2315 18.9934 15.3491 18.6974 15.3491Z" fill="white"/>
</g>
<defs>
<clipPath id="clip0_1_3454">
<rect width="24" height="24" fill="white"/>
</clipPath>
</defs>
</svg>
