<svg width="20" height="20" viewBox="0 0 20 20" fill="none" xmlns="http://www.w3.org/2000/svg">
<g clip-path="url(#clip0_1_2158)">
<path d="M17.6923 4.61537H2.30768C2.10367 4.61537 1.90801 4.53432 1.76375 4.39006C1.6195 4.2458 1.53845 4.05015 1.53845 3.84613C1.53845 3.64212 1.6195 3.44647 1.76375 3.30221C1.90801 3.15795 2.10367 3.0769 2.30768 3.0769H17.6923C17.8963 3.0769 18.092 3.15795 18.2362 3.30221C18.3805 3.44647 18.4615 3.64212 18.4615 3.84613C18.4615 4.05015 18.3805 4.2458 18.2362 4.39006C18.092 4.53432 17.8963 4.61537 17.6923 4.61537Z" fill="#FF3538"/>
<path d="M17.5309 5.38464C17.5309 5.46157 17.5309 5.53849 17.5232 5.61541L16.2847 17.9231C16.2309 18.493 15.9658 19.0221 15.5416 19.4065C15.1174 19.7908 14.5648 20.0026 13.9923 20H6.00787C5.43545 20.0026 4.8828 19.7908 4.45859 19.4065C4.03439 19.0221 3.76934 18.493 3.71556 17.9231L2.47705 5.61541C2.46936 5.53849 2.46936 5.46157 2.46936 5.38464H17.5309Z" fill="#FF3538"/>
<path d="M13.8461 4.61539H6.1538C6.03694 4.61537 5.92162 4.58873 5.81661 4.53747C5.71159 4.48622 5.61963 4.41171 5.54772 4.31959C5.47582 4.22748 5.42584 4.12019 5.40161 4.00588C5.37737 3.89156 5.37951 3.77322 5.40785 3.65985L6.03135 1.16587C6.11404 0.832666 6.30599 0.536777 6.57655 0.325449C6.84711 0.11412 7.18068 -0.000461059 7.52399 1.39438e-06H12.4759C12.8192 -0.000461059 13.1528 0.11412 13.4233 0.325449C13.6939 0.536777 13.8859 0.832666 13.9686 1.16587L14.5921 3.65985C14.6204 3.77322 14.6225 3.89156 14.5983 4.00588C14.5741 4.12019 14.5241 4.22748 14.4522 4.31959C14.3803 4.41171 14.2883 4.48622 14.1833 4.53747C14.0783 4.58873 13.963 4.61537 13.8461 4.61539ZM7.13938 3.07692H12.8605L12.4767 1.53846H7.52399L7.13938 3.07692Z" fill="#FF3538"/>
</g>
<defs>
<clipPath id="clip0_1_2158">
<rect width="20" height="20" fill="white"/>
</clipPath>
</defs>
</svg>
