<svg width="20" height="20" viewBox="0 0 20 20" fill="none" xmlns="http://www.w3.org/2000/svg">
<g clip-path="url(#clip0_1_4125)">
<path d="M20.0002 1.62793V10.0002C19.9978 10.4312 19.8255 10.8438 19.5207 11.1486C19.216 11.4534 18.8033 11.6257 18.3723 11.6281H18.1397V13.7212C18.1393 13.8442 18.1064 13.9649 18.0444 14.0711C17.9823 14.1772 17.8932 14.2651 17.7862 14.3258C17.6822 14.3878 17.5631 14.42 17.442 14.4188C17.3143 14.4169 17.1892 14.3816 17.0793 14.3165L16.5118 13.963V5.97219C16.5106 5.64401 16.4446 5.3193 16.3176 5.01668C16.1906 4.71406 16.0051 4.4395 15.7717 4.20874C15.5384 3.97798 15.2618 3.79556 14.9578 3.67195C14.6537 3.54834 14.3283 3.48598 14.0001 3.48843H2.83716V1.62793C2.83932 1.20482 3.0052 0.798975 3.30002 0.495482C3.59484 0.191989 3.99571 0.0144189 4.41858 0H18.3723C18.8033 0.00244199 19.216 0.17474 19.5207 0.479509C19.8255 0.784278 19.9978 1.19693 20.0002 1.62793Z" fill="white"/>
<path d="M14 4.41846H1.55327C1.14125 4.41846 0.74611 4.58214 0.454769 4.87348C0.163429 5.16482 -0.00024414 5.55996 -0.00024414 5.97198V14.8558C-0.000251455 15.2687 0.163124 15.6648 0.4542 15.9576C0.745276 16.2505 1.1404 16.4162 1.55327 16.4187H3.33004C3.38925 16.4187 3.44604 16.4422 3.48791 16.484C3.52978 16.5259 3.5533 16.5827 3.5533 16.6419V17.7675C3.5503 18.0407 3.62028 18.3098 3.75601 18.5469C3.89174 18.784 4.08831 18.9806 4.32541 19.1164C4.56304 19.2539 4.83224 19.3277 5.10681 19.3303C5.37779 19.3319 5.6443 19.2613 5.87892 19.1257L10.5302 16.4466C10.5669 16.4382 10.605 16.4382 10.6418 16.4466H14C14.2091 16.4491 14.4167 16.4096 14.6103 16.3304C14.8039 16.2513 14.9797 16.134 15.1272 15.9857C15.2746 15.8374 15.3908 15.6609 15.4689 15.4668C15.5469 15.2728 15.5852 15.065 15.5814 14.8558V5.97198C15.5814 5.7656 15.5403 5.56128 15.4605 5.37096C15.3807 5.18063 15.2638 5.00812 15.1166 4.86349C14.9693 4.71886 14.7948 4.60502 14.6031 4.52861C14.4113 4.4522 14.2063 4.41476 14 4.41846Z" fill="white"/>
</g>
<defs>
<clipPath id="clip0_1_4125">
<rect width="20" height="20" fill="white"/>
</clipPath>
</defs>
</svg>
