<svg width="28" height="28" viewBox="0 0 28 28" fill="none" xmlns="http://www.w3.org/2000/svg">
<g clip-path="url(#clip0_1_2069)">
<path d="M14.0002 0C11.2311 0 8.52422 0.821124 6.22182 2.35954C3.91943 3.89795 2.12493 6.08455 1.06525 8.64283C0.00557798 11.2011 -0.271682 14.0162 0.268537 16.732C0.808755 19.4479 2.14219 21.9426 4.10021 23.9006C6.05824 25.8586 8.55292 27.1921 11.2688 27.7323C13.9846 28.2725 16.7997 27.9952 19.358 26.9356C21.9163 25.8759 24.1029 24.0814 25.6413 21.779C27.1797 19.4766 28.0008 16.7697 28.0008 14.0007C28.0008 12.1621 27.6387 10.3415 26.9351 8.64283C26.2315 6.9442 25.2002 5.40078 23.9001 4.1007C22.6 2.80062 21.0566 1.76933 19.358 1.06574C17.6593 0.362138 15.8388 0 14.0002 0ZM20.0485 12.6006L13.5241 19.1389C13.3717 19.2914 13.1905 19.412 12.991 19.4938C12.7915 19.5755 12.5777 19.6167 12.3621 19.6149C12.1486 19.6164 11.937 19.575 11.7398 19.4932C11.5426 19.4115 11.3638 19.291 11.214 19.1389L7.95189 15.8487C7.65956 15.5418 7.49882 15.1327 7.50399 14.7089C7.50916 14.285 7.67982 13.88 7.97955 13.5803C8.27927 13.2806 8.6843 13.1099 9.10814 13.1047C9.53198 13.0996 9.94105 13.2603 10.248 13.5526L12.3621 15.6527L17.7523 10.2765C17.9049 10.1257 18.0858 10.0065 18.2844 9.92559C18.4831 9.8447 18.6958 9.80374 18.9103 9.80504C19.1248 9.80634 19.337 9.84988 19.5347 9.93317C19.7323 10.0165 19.9117 10.1379 20.0625 10.2905C20.2132 10.4431 20.3324 10.6239 20.4133 10.8226C20.4942 11.0212 20.5352 11.2339 20.5339 11.4484C20.5326 11.6629 20.489 11.8751 20.4058 12.0728C20.3225 12.2705 20.2011 12.4498 20.0485 12.6006Z" fill="#22A51B"/>
</g>
<defs>
<clipPath id="clip0_1_2069">
<rect width="28" height="28" fill="white"/>
</clipPath>
</defs>
</svg>
