<svg width="21" height="20" viewBox="0 0 21 20" fill="none" xmlns="http://www.w3.org/2000/svg">
<path d="M12.4333 3.33362L3.37498 12.3503C3.18476 12.5369 3.05178 12.774 2.99164 13.0336L2.03331 16.8503C1.99371 17.0036 1.98989 17.164 2.02214 17.3191C2.05439 17.4741 2.12184 17.6197 2.21929 17.7445C2.31674 17.8693 2.44158 17.9701 2.58417 18.039C2.72676 18.1079 2.88328 18.1432 3.04164 18.142C3.12756 18.1502 3.21406 18.1502 3.29998 18.142L7.11664 17.1836C7.37183 17.1184 7.6049 16.986 7.79164 16.8003L16.85 7.70862L12.4333 3.33362Z" fill="white"/>
<path d="M18.8333 2.50033L17.65 1.31699C17.213 0.900753 16.6326 0.668579 16.0292 0.668579C15.4257 0.668579 14.8453 0.900753 14.4083 1.31699L13.3167 2.40866L17.7333 6.82533L18.8333 5.73366C19.2608 5.3042 19.5008 4.72293 19.5008 4.11699C19.5008 3.51106 19.2608 2.92978 18.8333 2.50033Z" fill="white"/>
</svg>
