<svg width="21" height="20" viewBox="0 0 21 20" fill="none" xmlns="http://www.w3.org/2000/svg">
<path d="M12.881 12.131H12.631V12.381V17.619C12.631 18.1842 12.4064 18.7262 12.0068 19.1259C11.6072 19.5255 11.0652 19.75 10.5 19.75C9.93484 19.75 9.39282 19.5255 8.99319 19.1259C8.59356 18.7262 8.36905 18.1842 8.36905 17.619V12.381V12.131H8.11905H2.88095C2.31579 12.131 1.77377 11.9064 1.37414 11.5068C0.97451 11.1072 0.75 10.5652 0.75 10C0.75 9.43484 0.97451 8.89282 1.37414 8.49319C1.77377 8.09356 2.31579 7.86905 2.88095 7.86905H8.11905H8.36905V7.61905V2.38095C8.36905 1.81579 8.59356 1.27377 8.99319 0.874142C9.39282 0.47451 9.93484 0.25 10.5 0.25C11.0652 0.25 11.6072 0.47451 12.0068 0.874141C12.4064 1.27377 12.631 1.81579 12.631 2.38095V7.61905V7.86905H12.881H18.119C18.6842 7.86905 19.2262 8.09356 19.6259 8.49319C20.0255 8.89282 20.25 9.43484 20.25 10C20.25 10.5652 20.0255 11.1072 19.6259 11.5068C19.2262 11.9064 18.6842 12.131 18.119 12.131H12.881Z" fill="white" stroke="#3596FF" stroke-width="0.5"/>
</svg>
