<svg width="20" height="20" viewBox="0 0 20 20" fill="none" xmlns="http://www.w3.org/2000/svg">
<g clip-path="url(#clip0_1_4102)">
<path d="M8.52284 19.0088C6 18.6916 5.21651 18.2637 3.51862 16.8871C1.82074 15.5105 0.649251 13.5907 0.201528 11.4512C-0.246196 9.3117 0.0572152 7.08327 1.06064 5.14135C2.06407 3.19944 3.70617 1.66273 5.71029 0.790152C7.71441 -0.0824291 9.95805 -0.237553 12.0632 0.350916C14.1683 0.939384 16.0063 2.23548 17.2674 4.02082C18.5285 5.80617 19.1357 7.97164 18.9867 10.1524C18.8377 12.3332 17.9416 14.3959 16.4493 15.9931C15.8782 16.6075 15.2232 17.138 14.5037 17.569C14.3273 17.6982 14.1184 17.7757 13.9005 17.7928C13.6937 17.7944 13.49 17.7424 13.3092 17.6418C13.1285 17.5412 12.9769 17.3955 12.8693 17.2188C12.6994 16.9453 12.6449 16.6154 12.7179 16.3017C12.7908 15.988 12.9852 15.7161 13.2585 15.5456C13.78 15.2269 14.2548 14.8373 14.669 14.3879C15.7787 13.205 16.4467 11.6757 16.5605 10.0577C16.6743 8.43975 16.227 6.832 15.2939 5.50531C14.3608 4.17863 12.999 3.21409 11.4378 2.7742C9.87664 2.3343 8.21156 2.44593 6.72308 3.09029C5.2346 3.73464 4.0137 4.87232 3.26605 6.31169C2.5184 7.75105 2.28969 9.40413 2.61847 10.9924C2.94724 12.5807 3.8134 14.0071 5.07103 15.0314C6.32865 16.0557 6.84124 16.3017 8.52284 16.6157C8.84535 16.6157 9.15464 16.7438 9.38269 16.9719C9.61074 17.1999 9.73886 17.5092 9.73886 17.8317C9.73886 18.1542 9.61074 18.4635 9.38269 18.6916C9.15464 18.9196 8.84535 19.0477 8.52284 19.0477V19.0088Z" fill="white"/>
<path d="M13.9003 17.7927C13.5778 17.7927 13.2685 17.6645 13.0405 17.4365C12.8124 17.2085 12.6843 16.8992 12.6843 16.5766V11.9558C12.6843 11.6333 12.8124 11.324 13.0405 11.0959C13.2685 10.8679 13.5778 10.7397 13.9003 10.7397C14.2229 10.7397 14.5322 10.8679 14.7602 11.0959C14.9883 11.324 15.1164 11.6333 15.1164 11.9558V15.3217H18.7644C19.0921 15.3217 19.4063 15.4519 19.638 15.6836C19.8697 15.9153 19.9999 16.2295 19.9999 16.5572C19.9999 16.8849 19.8697 17.1991 19.638 17.4308C19.4063 17.6625 19.0921 17.7927 18.7644 17.7927H13.9003Z" fill="white"/>
</g>
<defs>
<clipPath id="clip0_1_4102">
<rect width="20" height="20" fill="white"/>
</clipPath>
</defs>
</svg>
