<svg width="28" height="28" viewBox="0 0 28 28" fill="none" xmlns="http://www.w3.org/2000/svg">
<path d="M23.4098 15.9928C23.6969 14.6799 23.6969 13.3204 23.4098 12.0075L25.1529 10.605C25.4303 10.381 25.6162 10.0633 25.6754 9.71172C25.7346 9.36014 25.663 8.99906 25.4743 8.69661L23.7983 6.01351C23.61 5.7101 23.3167 5.48657 22.9742 5.38551C22.6317 5.28444 22.264 5.31291 21.9412 5.46549L19.9143 6.41683C19.1238 5.79692 18.2407 5.30519 17.2973 4.95966L17.0296 2.74254C16.9869 2.3887 16.8161 2.06273 16.5496 1.82616C16.283 1.5896 15.939 1.45881 15.5826 1.4585H12.4176C12.0611 1.45895 11.7171 1.58976 11.4504 1.82626C11.1836 2.06277 11.0126 2.38865 10.9695 2.74252L10.7029 4.95966C9.75967 5.30539 8.87656 5.7971 8.08588 6.41683L6.06131 5.46664C5.73864 5.31331 5.37081 5.2842 5.02804 5.38486C4.68527 5.48553 4.39159 5.70892 4.20307 6.01237L2.52594 8.69661C2.33717 8.99905 2.26563 9.36013 2.32482 9.7117C2.38401 10.0633 2.56984 10.381 2.84723 10.605L4.59044 12.0075C4.30334 13.3204 4.30334 14.6799 4.59044 15.9928L2.84728 17.3954C2.56988 17.6193 2.38404 17.937 2.32485 18.2886C2.26565 18.6402 2.33718 19.0013 2.52594 19.3037L4.20188 21.9868C4.39053 22.2898 4.68387 22.513 5.0262 22.614C5.36854 22.7151 5.73605 22.6869 6.05898 22.5348L8.08588 21.5835C8.87644 22.2034 9.75957 22.6951 10.7029 23.0407L10.9707 25.2578C11.0133 25.6116 11.1841 25.9376 11.4507 26.1742C11.7172 26.4107 12.0612 26.5415 12.4176 26.5418H15.5826C15.9391 26.5414 16.2831 26.4106 16.5499 26.1741C16.8166 25.9376 16.9876 25.6117 17.0307 25.2578L17.2973 23.0407C18.2406 22.695 19.1237 22.2032 19.9143 21.5835L21.9389 22.5337C22.2616 22.6869 22.6294 22.716 22.9721 22.6153C23.3149 22.5147 23.6086 22.2913 23.7971 21.988L25.4743 19.3037C25.663 19.0013 25.7346 18.6402 25.6754 18.2886C25.6162 17.9371 25.4304 17.6193 25.153 17.3954L23.4098 15.9928ZM14.0001 18.9585C13.0194 18.9585 12.0608 18.6677 11.2454 18.1229C10.43 17.578 9.79449 16.8037 9.41921 15.8976C9.04392 14.9916 8.94573 13.9947 9.13705 13.0328C9.32837 12.071 9.8006 11.1875 10.494 10.4941C11.1875 9.80066 12.071 9.32842 13.0328 9.1371C13.9946 8.94578 14.9916 9.04398 15.8976 9.41926C16.8036 9.79455 17.578 10.4301 18.1228 11.2455C18.6676 12.0609 18.9584 13.0195 18.9584 14.0002C18.9571 15.3148 18.4342 16.5751 17.5047 17.5047C16.5751 18.4343 15.3147 18.9571 14.0001 18.9585Z" fill="#3596FF"/>
<path d="M14 17.2087C15.7719 17.2087 17.2083 15.7722 17.2083 14.0003C17.2083 12.2284 15.7719 10.792 14 10.792C12.228 10.792 10.7916 12.2284 10.7916 14.0003C10.7916 15.7722 12.228 17.2087 14 17.2087Z" fill="#3596FF"/>
</svg>
