<svg width="20" height="20" viewBox="0 0 20 20" fill="none" xmlns="http://www.w3.org/2000/svg">
<g clip-path="url(#clip0_1_4120)">
<path d="M19.7215 9.3587L12.4803 2.65256C12.3579 2.54026 12.2052 2.46635 12.0412 2.43997C11.8772 2.41359 11.709 2.43591 11.5576 2.50416C11.4061 2.57242 11.278 2.6836 11.1891 2.82394C11.1003 2.96429 11.0545 3.12762 11.0576 3.29371V6.5339H9.35641C6.85183 6.55733 4.45911 7.57464 2.70451 9.36207C0.949923 11.1495 -0.0228484 13.5607 0.000154732 16.0653V16.5139C-0.00278124 16.6809 0.0437211 16.845 0.133815 16.9856C0.223909 17.1263 0.353574 17.2372 0.506505 17.3043C0.659437 17.3715 0.828809 17.3919 0.993327 17.3631C1.15785 17.3342 1.31017 17.2574 1.43114 17.1422C6.74912 12.0028 11.0576 13.4658 11.0576 13.4658V16.706C11.0545 16.8721 11.1003 17.0354 11.1891 17.1757C11.278 17.3161 11.4061 17.4273 11.5576 17.4955C11.709 17.5638 11.8772 17.5861 12.0412 17.5597C12.2052 17.5333 12.3579 17.4594 12.4803 17.3471L19.7215 10.641C19.8094 10.5589 19.8794 10.4596 19.9273 10.3493C19.9752 10.239 19.9999 10.1201 19.9999 9.99985C19.9999 9.8796 19.9752 9.76064 19.9273 9.65035C19.8794 9.54006 19.8094 9.44079 19.7215 9.3587Z" fill="white"/>
</g>
<defs>
<clipPath id="clip0_1_4120">
<rect width="20" height="20" fill="white"/>
</clipPath>
</defs>
</svg>
