<svg width="20" height="20" viewBox="0 0 20 20" fill="none" xmlns="http://www.w3.org/2000/svg">
<g clip-path="url(#clip0_1_4108)">
<path d="M10.0002 4.25806C9.01607 4.74195 7.99217 5.14031 6.93979 5.44872C6.02644 5.71925 5.09341 5.9183 4.14917 6.04405V8.41608C4.14831 9.74466 4.52233 11.0465 5.22825 12.172C5.93416 13.2976 6.94333 14.2011 8.13976 14.7787L10.0002 15.7089L11.8606 14.7787C13.0466 14.1932 14.0443 13.2863 14.74 12.1614C15.4356 11.0365 15.8013 9.73873 15.7954 8.41608V6.04405C14.8511 5.9183 13.9181 5.71925 13.0047 5.44872C11.9714 5.13732 10.9663 4.73901 10.0002 4.25806Z" fill="white"/>
<path d="M19.3766 2.79714C17.8412 2.62653 16.3248 2.31516 14.8465 1.86694C13.283 1.4054 11.7663 0.798102 10.3163 0.053033C10.2186 0.00246491 10.1101 -0.0239258 10.0001 -0.0239258C9.89001 -0.0239258 9.78156 0.00246491 9.6838 0.053033C8.23487 0.807683 6.71815 1.42434 5.15369 1.89484C3.67535 2.34306 2.15893 2.65444 0.623583 2.82505C0.457178 2.84472 0.30317 2.92285 0.189021 3.04552C0.0748719 3.16819 0.00800474 3.32741 0.000343905 3.4948V7.75515C-0.00872683 9.96181 0.600915 12.1268 1.76009 14.0045C2.91926 15.8822 4.58154 17.3974 6.55831 18.3781L9.27451 19.7362C9.50052 19.8464 9.74864 19.9037 10.0001 19.9037C10.2515 19.9037 10.4996 19.8464 10.7256 19.7362L13.4418 18.3781C15.4186 17.3974 17.0809 15.8822 18.2401 14.0045C19.3992 12.1268 20.0089 9.96181 19.9998 7.75515V3.4948C19.9987 3.32255 19.9348 3.15661 19.8201 3.02815C19.7053 2.89968 19.5476 2.81754 19.3766 2.79714ZM17.2092 8.37839C17.2148 9.95998 16.7767 11.5114 15.9446 12.8565C15.1126 14.2016 13.92 15.2863 12.5023 15.9875L10.6419 16.9177C10.4537 17.0099 10.2469 17.0577 10.0373 17.0572C9.82786 17.0564 9.62127 17.0087 9.43265 16.9177L7.57223 15.9875C6.15456 15.2863 4.96196 14.2016 4.12993 12.8565C3.2979 11.5114 2.85979 9.95998 2.86538 8.37839V5.42963C2.86669 5.25841 2.93092 5.09364 3.04585 4.96671C3.16077 4.83977 3.31837 4.75954 3.48862 4.74128C4.55025 4.62386 5.59933 4.41218 6.62342 4.10874C7.70472 3.79127 8.75416 3.37398 9.75822 2.86226C9.85468 2.80764 9.96364 2.77893 10.0745 2.77893C10.1853 2.77893 10.2943 2.80764 10.3908 2.86226C11.3948 3.37398 12.4443 3.79127 13.5256 4.10874C14.5497 4.41218 15.5987 4.62386 16.6604 4.74128C16.8306 4.75954 16.9882 4.83977 17.1031 4.96671C17.2181 5.09364 17.2823 5.25841 17.2836 5.42963L17.2092 8.37839Z" fill="white"/>
</g>
<defs>
<clipPath id="clip0_1_4108">
<rect width="20" height="20" fill="white"/>
</clipPath>
</defs>
</svg>
