<svg width="28" height="28" viewBox="0 0 28 28" fill="none" xmlns="http://www.w3.org/2000/svg">
<g opacity="0.5" clip-path="url(#clip0_1_2396)">
<path d="M14.0002 0C11.2311 0 8.52422 0.821124 6.22182 2.35954C3.91943 3.89795 2.12493 6.08455 1.06525 8.64283C0.00557827 11.2011 -0.271682 14.0162 0.268536 16.732C0.808755 19.4479 2.14219 21.9426 4.10021 23.9006C6.05824 25.8586 8.55292 27.1921 11.2688 27.7323C13.9846 28.2725 16.7997 27.9952 19.358 26.9356C21.9163 25.8759 24.1029 24.0814 25.6413 21.779C27.1797 19.4766 28.0008 16.7697 28.0008 14.0006C27.9965 10.2888 26.52 6.7302 23.8953 4.10551C21.2706 1.48082 17.712 0.00435921 14.0002 0ZM18.6121 17.4596C18.4587 17.6642 18.2598 17.8302 18.0311 17.9446C17.8023 18.059 17.5501 18.1185 17.2944 18.1185C16.938 18.1185 16.5913 18.0029 16.3062 17.7891L13.0119 15.3184C12.8073 15.1649 12.6413 14.966 12.5269 14.7373C12.4126 14.5086 12.353 14.2564 12.353 14.0006V9.88281C12.353 9.44596 12.5266 9.02701 12.8355 8.71811C13.1444 8.40921 13.5633 8.23568 14.0002 8.23568C14.437 8.23568 14.856 8.40921 15.1649 8.71811C15.4738 9.02701 15.6473 9.44596 15.6473 9.88281V13.1771L18.2827 15.1536C18.4558 15.2834 18.6016 15.446 18.7118 15.6321C18.822 15.8183 18.8944 16.0243 18.925 16.2384C18.9556 16.4525 18.9437 16.6706 18.89 16.8801C18.8364 17.0897 18.7419 17.2866 18.6121 17.4596Z" fill="#333333"/>
</g>
<defs>
<clipPath id="clip0_1_2396">
<rect width="28" height="28" fill="white"/>
</clipPath>
</defs>
</svg>
