<svg width="81" height="80" viewBox="0 0 81 80" fill="none" xmlns="http://www.w3.org/2000/svg">
<path d="M53.8334 10H18.8334C15.7392 10 12.7718 11.2292 10.5838 13.4171C8.39591 15.605 7.16675 18.5725 7.16675 21.6667C7.16675 24.7609 8.39591 27.7283 10.5838 29.9162C12.7718 32.1042 15.7392 33.3333 18.8334 33.3333H57.1668C58.0508 33.3333 58.8987 32.9821 59.5238 32.357C60.1489 31.7319 60.5001 30.8841 60.5001 30V16.6667C60.5001 14.8986 59.7977 13.2029 58.5475 11.9526C57.2972 10.7024 55.6015 10 53.8334 10ZM18.8334 26.6667C17.5073 26.6667 16.2356 26.1399 15.2979 25.2022C14.3602 24.2645 13.8334 22.9928 13.8334 21.6667C13.8254 21.097 13.9273 20.5311 14.1334 20C14.4643 19.0192 15.0973 18.1683 15.9417 17.5695C16.786 16.9707 17.7983 16.6546 18.8334 16.6667H53.8334V26.6667H18.8334Z" fill="#333333"/>
<path d="M67.1666 26.6669H18.8333C17.5072 26.6669 16.2354 26.1401 15.2978 25.2024C14.3601 24.2647 13.8333 22.9929 13.8333 21.6669C13.8253 21.0972 13.9271 20.5313 14.1333 20.0002L12.3 18.8335C11.7943 18.5091 11.2105 18.3274 10.6101 18.3075C10.0096 18.2876 9.41502 18.4304 8.88908 18.7207C8.36313 19.011 7.92542 19.438 7.62222 19.9566C7.31901 20.4752 7.1616 21.0661 7.16662 21.6669V60.0002C7.16662 63.5364 8.57138 66.9278 11.0719 69.4283C13.5723 71.9288 16.9637 73.3335 20.5 73.3335H67.1666C68.9347 73.3335 70.6304 72.6311 71.8807 71.3809C73.1309 70.1307 73.8333 68.435 73.8333 66.6669V33.3335C73.8333 31.5654 73.1309 29.8697 71.8807 28.6195C70.6304 27.3692 68.9347 26.6669 67.1666 26.6669ZM53.8333 55.0002C52.8444 55.0002 51.8777 54.7069 51.0554 54.1575C50.2332 53.6081 49.5923 52.8272 49.2139 51.9136C48.8354 51 48.7364 49.9946 48.9294 49.0247C49.1223 48.0548 49.5985 47.1639 50.2978 46.4647C50.997 45.7654 51.8879 45.2892 52.8578 45.0963C53.8277 44.9033 54.8331 45.0024 55.7467 45.3808C56.6603 45.7592 57.4412 46.4001 57.9906 47.2223C58.54 48.0446 58.8333 49.0113 58.8333 50.0002C58.8333 51.3263 58.3065 52.598 57.3688 53.5357C56.4311 54.4734 55.1594 55.0002 53.8333 55.0002Z" fill="#333333"/>
</svg>
